<svg xmlns="http://www.w3.org/2000/svg" xmlns:xlink="http://www.w3.org/1999/xlink" preserveAspectRatio="xMidYMid" width="498" height="921" viewBox="0 0 498 921">
  <defs>
    <style>
      .cls-1 {
        fill: #8cc0f5;
        fill-rule: evenodd;
      }

      .cls-2 {
        fill: #6fb0f3;
      }
    </style>
  </defs>
  <g>
    <path d="M445.965,921.009 L52.018,921.009 C23.286,921.009 -0.005,897.671 -0.005,868.882 L-0.005,52.138 C-0.005,23.349 23.286,0.011 52.018,0.011 L445.965,0.011 C474.697,0.011 497.988,23.349 497.988,52.138 L497.988,868.882 C497.988,897.671 474.697,921.009 445.965,921.009 ZM496.000,53.000 C496.000,24.833 473.167,2.000 445.000,2.000 L53.000,2.000 C24.833,2.000 2.000,24.833 2.000,53.000 L2.000,868.000 C2.000,896.167 24.833,919.000 53.000,919.000 L445.000,919.000 C473.167,919.000 496.000,896.167 496.000,868.000 L496.000,53.000 Z" class="cls-1"/>
    <path d="M217.009,34.375 L281.368,34.375 C283.171,34.375 284.633,35.835 284.633,37.636 C284.633,39.436 283.171,40.896 281.368,40.896 L217.009,40.896 C215.206,40.896 213.745,39.436 213.745,37.636 C213.745,35.835 215.206,34.375 217.009,34.375 Z" class="cls-1"/>
    <path d="M18.988,830.011 L18.988,76.985 L478.006,76.985 L478.006,830.011 L18.988,830.011 ZM476.006,78.985 L20.988,78.985 L20.988,828.011 L476.006,828.011 L476.006,78.985 Z" class="cls-1"/>
    <circle cx="112.188" cy="316.844" r="4.281" class="cls-2"/>
    <circle cx="249.094" cy="316.844" r="4.281" class="cls-2"/>
    <ellipse cx="112.188" cy="453.688" rx="4.281" ry="4.281" class="cls-2"/>
    <ellipse cx="249.094" cy="453.688" rx="4.281" ry="4.281" class="cls-2"/>
    <ellipse cx="112.188" cy="590.563" rx="4.281" ry="4.282" class="cls-2"/>
    <ellipse cx="249.094" cy="590.563" rx="4.281" ry="4.282" class="cls-2"/>
    <ellipse cx="385.953" cy="590.563" rx="4.297" ry="4.282" class="cls-2"/>
    <ellipse cx="385.953" cy="453.688" rx="4.297" ry="4.281" class="cls-2"/>
    <circle cx="385.953" cy="316.844" r="4.297" class="cls-2"/>
  </g>
</svg>
